<svg version="1.1" id="Layer_1" xmlns="http://www.w3.org/2000/svg" xmlns:xlink="http://www.w3.org/1999/xlink" x="0px" y="0px"
	 width="100%" viewBox="0 0 1024 1024" enable-background="new 0 0 1024 1024" xml:space="preserve">
<path fill="#000000" opacity="1.000000" stroke="none" 
	d="
M681.000000,936.260742 
	C604.754028,936.261536 529.007996,936.261536 453.015656,936.261536 
	C453.625366,933.485840 455.521301,932.510132 456.903046,931.200745 
	C481.465118,907.923401 505.568481,884.193054 527.551270,858.424255 
	C566.606201,812.642944 600.350464,763.554443 621.254395,706.564575 
	C629.357117,684.474365 634.817688,661.751709 637.791992,638.395691 
	C639.495239,625.020691 641.000916,611.623718 640.579346,598.154419 
	C639.751343,571.703064 635.749634,545.814026 624.423279,521.577271 
	C608.729553,487.995056 583.683167,463.581177 550.783142,446.849457 
	C530.681152,436.626312 509.258820,429.693298 488.448669,421.236145 
	C472.961548,414.942230 457.929230,407.881195 445.278320,396.591980 
	C429.973877,382.934723 423.413208,365.916321 425.761627,345.599213 
	C428.081665,325.527130 444.367615,310.159271 467.004242,306.739471 
	C486.048920,303.862274 505.180878,305.296326 524.287109,306.215668 
	C546.381775,307.278839 568.494751,309.008423 590.462097,304.672455 
	C592.224976,304.324524 593.954895,303.809814 596.322632,303.216614 
	C594.129089,299.749329 592.176575,296.734711 590.295471,293.676147 
	C584.781250,284.710327 579.848511,275.438843 576.904358,265.288605 
	C573.615723,253.950790 577.578247,244.954605 588.006165,239.355743 
	C595.092896,235.550858 602.813599,233.401367 610.388245,230.875122 
	C611.953613,230.353043 613.526550,229.853607 615.008362,229.372208 
	C615.586182,226.967010 613.954346,225.721497 612.944641,224.320618 
	C590.533875,193.227371 560.244202,174.791534 522.391174,169.563583 
	C474.227203,162.911575 430.183319,173.362167 392.549774,204.950027 
	C361.059082,231.381866 340.850830,264.703522 336.251953,306.289856 
	C330.469360,358.580109 347.317810,402.236603 386.803467,437.087219 
	C402.910034,451.303101 421.337677,462.024597 439.987427,472.412323 
	C459.932648,483.521667 479.991302,494.498016 497.641174,509.157501 
	C512.431824,521.442139 525.302856,535.153015 529.721680,554.881653 
	C534.228943,575.005432 523.851196,600.752319 506.436676,611.717163 
	C497.246948,617.503418 490.711456,616.452454 483.642151,608.255981 
	C464.430634,585.981445 441.724243,568.645630 413.121033,560.377747 
	C378.222443,550.290222 344.902649,556.361084 312.922913,571.938965 
	C279.757721,588.094177 252.505356,611.961060 227.640137,638.751526 
	C183.794281,685.992188 150.369781,740.503113 118.337036,795.967773 
	C114.504936,802.603088 110.862839,809.347900 107.064331,816.002991 
	C106.277252,817.381958 105.932304,819.192627 104.093803,819.771973 
	C97.918083,811.280823 90.663559,766.367004 92.271721,745.671936 
	C93.773689,748.260620 94.989304,750.401001 96.247726,752.515930 
	C99.714600,758.342468 105.410118,758.540527 109.147835,752.651306 
	C114.770386,743.792480 120.005997,734.689148 125.510330,725.753967 
	C153.655563,680.065918 184.793854,636.675964 223.987350,599.650330 
	C257.644958,567.854431 295.441498,542.903625 340.972565,531.434570 
	C361.130768,526.356750 381.483124,524.708679 402.320312,527.304138 
	C411.031097,528.389160 419.782501,525.136597 427.951172,521.499878 
	C430.657928,520.294800 431.297302,517.937256 431.033722,515.259094 
	C430.219879,506.989502 426.149048,500.176636 419.344452,496.048065 
	C402.956024,486.104858 386.353546,476.548340 371.477295,464.340546 
	C336.052307,435.269867 314.219818,398.132111 305.918732,353.131989 
	C303.258362,338.710266 302.231506,324.085602 302.832794,309.382141 
	C302.916870,307.326569 303.590790,305.064331 301.927338,303.182556 
	C299.434052,303.096191 298.510437,305.166046 297.260284,306.556610 
	C278.311798,327.633118 258.843658,348.196381 237.725677,367.137543 
	C230.031860,374.038330 222.173080,380.739349 213.427826,386.313538 
	C210.120850,388.421387 206.650024,389.888611 202.599915,389.259552 
	C197.859528,388.523285 195.796829,384.966614 197.722565,380.544342 
	C199.614410,376.200043 202.687622,372.603760 205.991043,369.338806 
	C240.451508,335.279938 269.986938,296.995392 300.531647,259.566406 
	C323.203949,231.784134 346.647247,204.693451 374.922333,182.293045 
	C386.715668,172.950012 399.445862,165.060333 412.904053,158.331177 
	C420.631470,154.467438 423.383972,148.771561 421.939026,140.340118 
	C421.332886,136.802887 418.533142,135.644424 415.906097,134.240555 
	C406.485535,129.206360 396.088501,128.811157 385.798981,128.078522 
	C373.744202,127.220200 361.894806,128.337769 350.190155,131.637405 
	C342.182495,133.894821 333.972107,135.459091 325.624725,136.035461 
	C314.261292,136.820084 304.734924,132.618607 296.614349,125.009949 
	C293.970093,122.532356 290.958923,120.974915 287.692963,119.672638 
	C284.028778,118.211578 280.529877,116.435043 280.218201,111.868416 
	C279.892212,107.091362 282.303955,103.494270 286.032379,100.899162 
	C290.366486,97.882469 295.547913,96.187271 299.214478,92.060966 
	C300.601044,90.500580 302.984314,91.067337 304.958710,90.929565 
	C320.932098,89.814888 336.931915,89.996605 352.926453,89.995705 
	C433.756989,89.991142 514.587524,90.009712 595.418091,90.014305 
	C599.747498,90.014549 604.061096,90.105644 608.331970,91.348297 
	C609.373657,105.217110 603.287964,116.251015 593.105042,124.286362 
	C585.572083,130.230652 582.498108,138.554779 577.453186,145.825531 
	C576.685181,146.932404 576.515869,148.689590 577.308899,149.667603 
	C580.255554,153.301804 581.359314,158.073425 585.971924,160.765396 
	C613.244263,176.681885 636.389099,197.223663 654.425537,223.300262 
	C655.720093,225.171982 657.507935,226.224014 659.631714,226.950226 
	C706.951843,243.131302 752.677734,263.361908 799.092468,281.845093 
	C826.196167,292.638245 853.111877,303.795898 878.239746,318.805786 
	C882.255920,321.204803 886.181274,323.743469 889.566711,326.980621 
	C898.773254,335.783905 896.293762,347.055023 884.147461,350.994232 
	C876.203979,353.570404 867.906250,352.639984 859.830322,351.973358 
	C840.943298,350.414307 822.096130,348.352600 803.246155,346.367645 
	C776.102539,343.509247 748.982483,340.423950 721.830444,337.649384 
	C697.187134,335.131195 672.600403,332.213104 648.132996,328.333374 
	C642.880554,327.500488 637.612671,326.692993 632.425171,325.543243 
	C627.062317,324.354645 622.112732,324.824982 616.868774,326.709686 
	C600.962585,332.426636 584.359009,334.799652 567.573242,336.386353 
	C543.069641,338.702637 518.681763,336.528442 494.258545,335.260986 
	C492.263245,335.157410 490.237457,335.392151 488.264282,335.152710 
	C476.490631,333.724243 468.616516,340.753326 460.814850,347.811310 
	C457.610626,350.710205 457.342682,353.751404 461.424591,356.363922 
	C463.097565,357.434692 464.530365,358.932892 466.285583,359.810211 
	C468.641785,360.987885 469.686768,362.678375 470.001312,365.246857 
	C470.608826,370.207306 473.135986,373.931213 476.726105,377.597931 
	C489.208588,390.346741 505.491425,395.659393 521.468628,401.727203 
	C544.093811,410.319824 566.263977,419.873810 586.328674,433.654633 
	C627.471008,461.912170 653.253174,500.533081 664.508606,549.109802 
	C672.580872,583.948608 671.428223,618.817566 665.775635,653.770996 
	C657.345215,705.901428 636.648254,753.193237 609.058472,797.804626 
	C585.142944,836.474792 557.516052,872.297058 526.957764,905.909424 
	C525.281738,907.752869 523.775940,909.751160 521.920471,912.005859 
	C524.037048,913.688965 525.754272,915.788513 528.617676,915.803223 
	C534.275330,915.832275 539.598083,917.395935 544.396362,920.075317 
	C552.586853,924.648987 561.291443,922.919312 569.326294,921.378174 
	C579.733643,919.382080 589.528992,921.057617 599.513672,922.629272 
	C625.526794,926.723572 651.564453,930.492798 678.005310,929.899963 
	C687.402649,929.689209 696.539124,930.867798 705.575256,933.635559 
	C711.990723,935.600464 718.762512,935.361816 725.436035,934.895203 
	C729.604431,934.603760 732.176025,930.798889 736.224365,929.981323 
	C749.034241,927.394165 758.674011,918.773621 769.173828,911.942505 
	C776.344360,907.277405 778.659485,895.351318 774.667603,887.602539 
	C771.851440,882.136108 768.857300,876.750061 765.702515,871.471619 
	C758.564880,859.529175 761.067078,847.320374 772.816223,839.591248 
	C778.226379,836.032166 783.863892,832.537903 789.863403,830.216431 
	C800.997620,825.908386 809.497253,817.803589 819.171570,811.400879 
	C823.297974,808.669983 825.799133,804.432434 829.057495,800.896301 
	C837.668030,791.551758 847.190552,783.730835 860.306335,781.607422 
	C863.977234,781.013184 867.171326,781.515381 870.289368,783.551514 
	C877.813293,788.464722 883.745605,794.842041 888.644592,802.344116 
	C894.491211,811.297302 895.444214,811.047546 905.931152,809.594910 
	C917.512207,807.990662 924.119995,801.875488 926.696777,790.757141 
	C927.090698,789.057068 927.293579,787.086670 929.403992,785.825012 
	C931.091736,787.709045 930.334595,789.874451 929.956848,791.780640 
	C917.128479,856.520325 879.158630,900.112793 817.931274,923.494690 
	C800.678650,930.083191 782.348572,932.736877 763.871216,934.503967 
	C736.424866,937.128906 708.944702,935.285522 681.000000,936.260742 
M788.280212,318.958679 
	C802.278625,320.977692 816.277100,322.996704 831.205139,325.149780 
	C829.311646,322.176819 827.360962,321.556458 825.595520,320.747833 
	C766.521179,293.690552 705.225952,272.382507 644.079590,250.691788 
	C642.070068,249.978943 640.072021,249.348236 637.771606,250.002975 
	C628.624878,252.606262 619.770935,255.973755 611.228882,260.112274 
	C607.478088,261.929474 606.004089,264.905457 607.715576,269.177338 
	C611.230652,277.950470 616.372437,285.647552 622.642883,292.647247 
	C624.015747,294.179840 625.645508,295.262390 627.720520,295.580933 
	C641.013794,297.621704 654.293762,299.755005 667.602905,301.686340 
	C692.906067,305.358093 718.226807,308.908539 743.538513,312.521393 
	C758.162292,314.608734 772.782654,316.719543 788.280212,318.958679 
z"/>
<path fill="#000000" opacity="1.000000" stroke="none" 
	d="
M288.688599,936.346924 
	C274.541656,935.973572 260.940308,934.769409 247.417130,932.821472 
	C247.309021,932.377563 247.200912,931.933655 247.092819,931.489685 
	C251.998352,928.259705 256.907104,925.034485 261.808990,921.798889 
	C309.384308,890.395996 352.810059,854.392517 386.547424,807.895935 
	C403.578033,784.424438 417.452759,759.257019 423.069489,730.392761 
	C427.982819,705.143372 425.852844,680.796448 412.348328,658.176086 
	C408.470978,651.681458 408.682495,644.291260 412.467743,640.439270 
	C416.364441,636.473877 423.976166,636.374268 430.572754,640.425842 
	C437.895111,644.923096 442.968109,651.508972 446.656830,659.104370 
	C455.879150,678.094055 457.960846,698.380005 455.771698,718.984985 
	C450.206940,771.363525 424.179504,813.940613 390.347443,852.542542 
	C363.174133,883.546814 331.632233,909.560486 297.678528,932.757507 
	C295.093597,934.523499 292.647736,936.715759 288.688599,936.346924 
z"/>
<path fill="#000000" opacity="1.000000" stroke="none" 
	d="
M887.490173,207.494141 
	C882.520203,207.099228 880.924438,210.539719 879.243896,213.824295 
	C876.805054,218.591003 874.848389,218.674957 870.245361,215.863342 
	C863.589050,211.797501 860.954773,204.685699 856.506531,198.995895 
	C850.697510,191.565567 844.216675,184.992889 836.367432,179.841431 
	C833.375061,177.877518 830.931213,175.538010 828.757202,172.747726 
	C822.622253,164.873734 816.424805,157.047302 810.164124,149.272842 
	C807.932434,146.501556 805.965759,143.744217 805.781311,139.983322 
	C805.664490,137.601181 804.298828,135.608383 802.986511,133.655472 
	C796.809937,124.464119 798.775574,117.844246 808.879700,113.483887 
	C811.950684,112.158623 815.482605,111.667336 815.480225,106.690361 
	C815.478699,103.342934 818.680664,104.136971 820.952820,104.884338 
	C829.999329,107.859879 838.672119,111.710518 846.918335,116.460594 
	C892.074463,142.472061 918.991333,181.458160 929.321655,232.283829 
	C934.351501,257.030792 935.784668,282.025787 934.941223,307.198975 
	C934.894958,308.577637 935.416199,310.208649 933.578308,311.532440 
	C932.516052,307.000397 932.250244,302.623230 932.002991,298.219666 
	C931.427856,287.976624 929.905762,278.030914 923.138245,269.650452 
	C920.766602,266.713593 920.101257,263.062134 919.995544,259.301849 
	C919.660583,247.387482 916.147827,236.735153 907.621094,228.020645 
	C906.128967,226.495621 904.871338,224.628036 903.912354,222.714691 
	C900.387756,215.682617 894.740234,210.992035 887.490173,207.494141 
z"/>
<path fill="#000000" opacity="1.000000" stroke="none" 
	d="
M558.430054,220.602524 
	C572.405945,238.313965 564.011719,260.237549 542.244934,263.791168 
	C529.149841,265.929108 515.627319,255.468796 513.747070,241.746796 
	C511.813629,227.636780 521.503052,214.305054 534.922668,212.717041 
	C543.826538,211.663376 551.766418,213.711945 558.430054,220.602524 
z"/>
</svg>